<mxfile host="Electron" modified="2023-10-18T18:51:24.277Z" agent="Mozilla/5.0 (Windows NT 10.0; Win64; x64) AppleWebKit/537.36 (KHTML, like Gecko) draw.io/22.0.3 Chrome/114.0.5735.289 Electron/25.8.4 Safari/537.36" etag="K3rX3G6PtzYe9scAe7AH" version="22.0.3" type="device">
  <diagram name="Page-1" id="_BAr91nf2BU1CdBqY8Vg">
    <mxGraphModel dx="1418" dy="828" grid="1" gridSize="10" guides="1" tooltips="1" connect="1" arrows="1" fold="1" page="1" pageScale="1" pageWidth="827" pageHeight="1169" math="0" shadow="0">
      <root>
        <mxCell id="0" />
        <mxCell id="1" parent="0" />
        <mxCell id="rbUo9_TIe73urPUqa5Ny-1" value="" style="rounded=0;whiteSpace=wrap;html=1;" parent="1" vertex="1">
          <mxGeometry x="160" y="40" width="1340" height="910" as="geometry" />
        </mxCell>
        <mxCell id="-QA-_m2Z5E1NNeN4uD1D-1" value="Learner" style="swimlane;fontStyle=1;align=center;verticalAlign=top;childLayout=stackLayout;horizontal=1;startSize=26;horizontalStack=0;resizeParent=1;resizeParentMax=0;resizeLast=0;collapsible=1;marginBottom=0;whiteSpace=wrap;html=1;" parent="1" vertex="1">
          <mxGeometry x="230" y="150" width="200" height="164" as="geometry" />
        </mxCell>
        <mxCell id="-QA-_m2Z5E1NNeN4uD1D-2" value="+ name: String" style="text;strokeColor=none;fillColor=none;align=left;verticalAlign=top;spacingLeft=4;spacingRight=4;overflow=hidden;rotatable=0;points=[[0,0.5],[1,0.5]];portConstraint=eastwest;whiteSpace=wrap;html=1;" parent="-QA-_m2Z5E1NNeN4uD1D-1" vertex="1">
          <mxGeometry y="26" width="200" height="26" as="geometry" />
        </mxCell>
        <mxCell id="-QA-_m2Z5E1NNeN4uD1D-5" value="+&amp;nbsp;courses: Set&amp;lt;Course&amp;gt; {unique}" style="text;strokeColor=none;fillColor=none;align=left;verticalAlign=top;spacingLeft=4;spacingRight=4;overflow=hidden;rotatable=0;points=[[0,0.5],[1,0.5]];portConstraint=eastwest;whiteSpace=wrap;html=1;" parent="-QA-_m2Z5E1NNeN4uD1D-1" vertex="1">
          <mxGeometry y="52" width="200" height="26" as="geometry" />
        </mxCell>
        <mxCell id="-QA-_m2Z5E1NNeN4uD1D-3" value="" style="line;strokeWidth=1;fillColor=none;align=left;verticalAlign=middle;spacingTop=-1;spacingLeft=3;spacingRight=3;rotatable=0;labelPosition=right;points=[];portConstraint=eastwest;strokeColor=inherit;" parent="-QA-_m2Z5E1NNeN4uD1D-1" vertex="1">
          <mxGeometry y="78" width="200" height="8" as="geometry" />
        </mxCell>
        <mxCell id="-QA-_m2Z5E1NNeN4uD1D-4" value="+ logout(): void" style="text;strokeColor=none;fillColor=none;align=left;verticalAlign=top;spacingLeft=4;spacingRight=4;overflow=hidden;rotatable=0;points=[[0,0.5],[1,0.5]];portConstraint=eastwest;whiteSpace=wrap;html=1;" parent="-QA-_m2Z5E1NNeN4uD1D-1" vertex="1">
          <mxGeometry y="86" width="200" height="26" as="geometry" />
        </mxCell>
        <mxCell id="-QA-_m2Z5E1NNeN4uD1D-6" value="+ selectCourse(Integer id): Course" style="text;strokeColor=none;fillColor=none;align=left;verticalAlign=top;spacingLeft=4;spacingRight=4;overflow=hidden;rotatable=0;points=[[0,0.5],[1,0.5]];portConstraint=eastwest;whiteSpace=wrap;html=1;" parent="-QA-_m2Z5E1NNeN4uD1D-1" vertex="1">
          <mxGeometry y="112" width="200" height="26" as="geometry" />
        </mxCell>
        <mxCell id="-QA-_m2Z5E1NNeN4uD1D-8" value="+ getCertificate(): Certificate" style="text;strokeColor=none;fillColor=none;align=left;verticalAlign=top;spacingLeft=4;spacingRight=4;overflow=hidden;rotatable=0;points=[[0,0.5],[1,0.5]];portConstraint=eastwest;whiteSpace=wrap;html=1;" parent="-QA-_m2Z5E1NNeN4uD1D-1" vertex="1">
          <mxGeometry y="138" width="200" height="26" as="geometry" />
        </mxCell>
        <mxCell id="-QA-_m2Z5E1NNeN4uD1D-9" value="&lt;table class=&quot;simple-table&quot; id=&quot;4be0993a-8cb2-40e5-bdfd-7f6b039907cc&quot;&gt;&lt;tbody&gt;&lt;tr id=&quot;e588f8d5-d057-4c99-b000-b41a2d156928&quot;&gt;&lt;td class=&quot;&quot; id=&quot;KpZ;&quot;&gt;Organizer&lt;/td&gt;&lt;/tr&gt;&lt;/tbody&gt;&lt;/table&gt;" style="swimlane;fontStyle=1;align=center;verticalAlign=top;childLayout=stackLayout;horizontal=1;startSize=26;horizontalStack=0;resizeParent=1;resizeParentMax=0;resizeLast=0;collapsible=1;marginBottom=0;whiteSpace=wrap;html=1;" parent="1" vertex="1">
          <mxGeometry x="580" y="100" width="260" height="218" as="geometry" />
        </mxCell>
        <mxCell id="-QA-_m2Z5E1NNeN4uD1D-10" value="+ name: String" style="text;strokeColor=none;fillColor=none;align=left;verticalAlign=top;spacingLeft=4;spacingRight=4;overflow=hidden;rotatable=0;points=[[0,0.5],[1,0.5]];portConstraint=eastwest;whiteSpace=wrap;html=1;" parent="-QA-_m2Z5E1NNeN4uD1D-9" vertex="1">
          <mxGeometry y="26" width="260" height="26" as="geometry" />
        </mxCell>
        <mxCell id="-QA-_m2Z5E1NNeN4uD1D-11" value="+&amp;nbsp;courses: Set&amp;lt;Course&amp;gt; {unique} " style="text;strokeColor=none;fillColor=none;align=left;verticalAlign=top;spacingLeft=4;spacingRight=4;overflow=hidden;rotatable=0;points=[[0,0.5],[1,0.5]];portConstraint=eastwest;whiteSpace=wrap;html=1;" parent="-QA-_m2Z5E1NNeN4uD1D-9" vertex="1">
          <mxGeometry y="52" width="260" height="26" as="geometry" />
        </mxCell>
        <mxCell id="-QA-_m2Z5E1NNeN4uD1D-12" value="" style="line;strokeWidth=1;fillColor=none;align=left;verticalAlign=middle;spacingTop=-1;spacingLeft=3;spacingRight=3;rotatable=0;labelPosition=right;points=[];portConstraint=eastwest;strokeColor=inherit;" parent="-QA-_m2Z5E1NNeN4uD1D-9" vertex="1">
          <mxGeometry y="78" width="260" height="8" as="geometry" />
        </mxCell>
        <mxCell id="-QA-_m2Z5E1NNeN4uD1D-13" value="+ logout(): void" style="text;strokeColor=none;fillColor=none;align=left;verticalAlign=top;spacingLeft=4;spacingRight=4;overflow=hidden;rotatable=0;points=[[0,0.5],[1,0.5]];portConstraint=eastwest;whiteSpace=wrap;html=1;" parent="-QA-_m2Z5E1NNeN4uD1D-9" vertex="1">
          <mxGeometry y="86" width="260" height="26" as="geometry" />
        </mxCell>
        <mxCell id="-QA-_m2Z5E1NNeN4uD1D-14" value="+ createNewCourse(Course course): Course" style="text;strokeColor=none;fillColor=none;align=left;verticalAlign=top;spacingLeft=4;spacingRight=4;overflow=hidden;rotatable=0;points=[[0,0.5],[1,0.5]];portConstraint=eastwest;whiteSpace=wrap;html=1;" parent="-QA-_m2Z5E1NNeN4uD1D-9" vertex="1">
          <mxGeometry y="112" width="260" height="28" as="geometry" />
        </mxCell>
        <mxCell id="-QA-_m2Z5E1NNeN4uD1D-15" value="+ editCourse(Course course): Course" style="text;strokeColor=none;fillColor=none;align=left;verticalAlign=top;spacingLeft=4;spacingRight=4;overflow=hidden;rotatable=0;points=[[0,0.5],[1,0.5]];portConstraint=eastwest;whiteSpace=wrap;html=1;" parent="-QA-_m2Z5E1NNeN4uD1D-9" vertex="1">
          <mxGeometry y="140" width="260" height="26" as="geometry" />
        </mxCell>
        <mxCell id="-QA-_m2Z5E1NNeN4uD1D-16" value="+ deleteCourse(Course course): void" style="text;strokeColor=none;fillColor=none;align=left;verticalAlign=top;spacingLeft=4;spacingRight=4;overflow=hidden;rotatable=0;points=[[0,0.5],[1,0.5]];portConstraint=eastwest;whiteSpace=wrap;html=1;" parent="-QA-_m2Z5E1NNeN4uD1D-9" vertex="1">
          <mxGeometry y="166" width="260" height="26" as="geometry" />
        </mxCell>
        <mxCell id="-QA-_m2Z5E1NNeN4uD1D-17" value="+ watchCourseStatistic(Integer id): void" style="text;strokeColor=none;fillColor=none;align=left;verticalAlign=top;spacingLeft=4;spacingRight=4;overflow=hidden;rotatable=0;points=[[0,0.5],[1,0.5]];portConstraint=eastwest;whiteSpace=wrap;html=1;" parent="-QA-_m2Z5E1NNeN4uD1D-9" vertex="1">
          <mxGeometry y="192" width="260" height="26" as="geometry" />
        </mxCell>
        <mxCell id="-QA-_m2Z5E1NNeN4uD1D-18" value="Course" style="swimlane;fontStyle=1;align=center;verticalAlign=top;childLayout=stackLayout;horizontal=1;startSize=26;horizontalStack=0;resizeParent=1;resizeParentMax=0;resizeLast=0;collapsible=1;marginBottom=0;whiteSpace=wrap;html=1;" parent="1" vertex="1">
          <mxGeometry x="730" y="461" width="250" height="138" as="geometry" />
        </mxCell>
        <mxCell id="-QA-_m2Z5E1NNeN4uD1D-19" value="+ name: String" style="text;strokeColor=none;fillColor=none;align=left;verticalAlign=top;spacingLeft=4;spacingRight=4;overflow=hidden;rotatable=0;points=[[0,0.5],[1,0.5]];portConstraint=eastwest;whiteSpace=wrap;html=1;" parent="-QA-_m2Z5E1NNeN4uD1D-18" vertex="1">
          <mxGeometry y="26" width="250" height="26" as="geometry" />
        </mxCell>
        <mxCell id="-QA-_m2Z5E1NNeN4uD1D-22" value="+ topics: Ð¡ourses: Set&amp;lt;Course&amp;gt; {unique}" style="text;strokeColor=none;fillColor=none;align=left;verticalAlign=top;spacingLeft=4;spacingRight=4;overflow=hidden;rotatable=0;points=[[0,0.5],[1,0.5]];portConstraint=eastwest;whiteSpace=wrap;html=1;" parent="-QA-_m2Z5E1NNeN4uD1D-18" vertex="1">
          <mxGeometry y="52" width="250" height="26" as="geometry" />
        </mxCell>
        <mxCell id="-QA-_m2Z5E1NNeN4uD1D-23" value="+&amp;nbsp;feedbacks: List&amp;lt;Feedback&amp;gt; [0..*]" style="text;strokeColor=none;fillColor=none;align=left;verticalAlign=top;spacingLeft=4;spacingRight=4;overflow=hidden;rotatable=0;points=[[0,0.5],[1,0.5]];portConstraint=eastwest;whiteSpace=wrap;html=1;" parent="-QA-_m2Z5E1NNeN4uD1D-18" vertex="1">
          <mxGeometry y="78" width="250" height="26" as="geometry" />
        </mxCell>
        <mxCell id="-QA-_m2Z5E1NNeN4uD1D-20" value="" style="line;strokeWidth=1;fillColor=none;align=left;verticalAlign=middle;spacingTop=-1;spacingLeft=3;spacingRight=3;rotatable=0;labelPosition=right;points=[];portConstraint=eastwest;strokeColor=inherit;" parent="-QA-_m2Z5E1NNeN4uD1D-18" vertex="1">
          <mxGeometry y="104" width="250" height="8" as="geometry" />
        </mxCell>
        <mxCell id="-QA-_m2Z5E1NNeN4uD1D-21" value="+ displayCourseTopics(Integer id): Topic" style="text;strokeColor=none;fillColor=none;align=left;verticalAlign=top;spacingLeft=4;spacingRight=4;overflow=hidden;rotatable=0;points=[[0,0.5],[1,0.5]];portConstraint=eastwest;whiteSpace=wrap;html=1;" parent="-QA-_m2Z5E1NNeN4uD1D-18" vertex="1">
          <mxGeometry y="112" width="250" height="26" as="geometry" />
        </mxCell>
        <mxCell id="-QA-_m2Z5E1NNeN4uD1D-24" value="&lt;table class=&quot;simple-table&quot; id=&quot;4be0993a-8cb2-40e5-bdfd-7f6b039907cc&quot;&gt;&lt;tbody&gt;&lt;tr id=&quot;23691669-71e0-4738-807a-c3c6f39562a6&quot;&gt;&lt;td class=&quot;&quot; id=&quot;KpZ;&quot;&gt;Topic&lt;/td&gt;&lt;/tr&gt;&lt;/tbody&gt;&lt;/table&gt;" style="swimlane;fontStyle=1;align=center;verticalAlign=top;childLayout=stackLayout;horizontal=1;startSize=26;horizontalStack=0;resizeParent=1;resizeParentMax=0;resizeLast=0;collapsible=1;marginBottom=0;whiteSpace=wrap;html=1;" parent="1" vertex="1">
          <mxGeometry x="410" y="480" width="200" height="100" as="geometry" />
        </mxCell>
        <mxCell id="-QA-_m2Z5E1NNeN4uD1D-25" value="+&amp;nbsp;lessons: Set&amp;lt;Course&amp;gt; {unique}" style="text;strokeColor=none;fillColor=none;align=left;verticalAlign=top;spacingLeft=4;spacingRight=4;overflow=hidden;rotatable=0;points=[[0,0.5],[1,0.5]];portConstraint=eastwest;whiteSpace=wrap;html=1;" parent="-QA-_m2Z5E1NNeN4uD1D-24" vertex="1">
          <mxGeometry y="26" width="200" height="26" as="geometry" />
        </mxCell>
        <mxCell id="sJjAoyrnurzyOcNZZube-14" value="" style="endArrow=diamondThin;endFill=1;endSize=24;html=1;rounded=0;" parent="-QA-_m2Z5E1NNeN4uD1D-24" edge="1">
          <mxGeometry width="160" relative="1" as="geometry">
            <mxPoint x="200" y="50" as="sourcePoint" />
            <mxPoint x="320" y="50" as="targetPoint" />
          </mxGeometry>
        </mxCell>
        <mxCell id="-QA-_m2Z5E1NNeN4uD1D-26" value="" style="line;strokeWidth=1;fillColor=none;align=left;verticalAlign=middle;spacingTop=-1;spacingLeft=3;spacingRight=3;rotatable=0;labelPosition=right;points=[];portConstraint=eastwest;strokeColor=inherit;" parent="-QA-_m2Z5E1NNeN4uD1D-24" vertex="1">
          <mxGeometry y="52" width="200" height="8" as="geometry" />
        </mxCell>
        <mxCell id="-QA-_m2Z5E1NNeN4uD1D-27" value="+ displayTopicLessons(Integer id): List&amp;lt;Lesson&amp;gt;" style="text;strokeColor=none;fillColor=none;align=left;verticalAlign=top;spacingLeft=4;spacingRight=4;overflow=hidden;rotatable=0;points=[[0,0.5],[1,0.5]];portConstraint=eastwest;whiteSpace=wrap;html=1;" parent="-QA-_m2Z5E1NNeN4uD1D-24" vertex="1">
          <mxGeometry y="60" width="200" height="40" as="geometry" />
        </mxCell>
        <mxCell id="-QA-_m2Z5E1NNeN4uD1D-28" value="Lesson" style="swimlane;fontStyle=1;align=center;verticalAlign=top;childLayout=stackLayout;horizontal=1;startSize=26;horizontalStack=0;resizeParent=1;resizeParentMax=0;resizeLast=0;collapsible=1;marginBottom=0;whiteSpace=wrap;html=1;" parent="1" vertex="1">
          <mxGeometry x="382.5" y="660" width="255" height="126" as="geometry" />
        </mxCell>
        <mxCell id="-QA-_m2Z5E1NNeN4uD1D-29" value="+&amp;nbsp;materials: Set&amp;lt;LessonMaterial&amp;gt; {unique}" style="text;strokeColor=none;fillColor=none;align=left;verticalAlign=top;spacingLeft=4;spacingRight=4;overflow=hidden;rotatable=0;points=[[0,0.5],[1,0.5]];portConstraint=eastwest;whiteSpace=wrap;html=1;" parent="-QA-_m2Z5E1NNeN4uD1D-28" vertex="1">
          <mxGeometry y="26" width="255" height="26" as="geometry" />
        </mxCell>
        <mxCell id="-QA-_m2Z5E1NNeN4uD1D-32" value="+&amp;nbsp;tests: Set&amp;lt;Test&amp;gt; {unique}" style="text;strokeColor=none;fillColor=none;align=left;verticalAlign=top;spacingLeft=4;spacingRight=4;overflow=hidden;rotatable=0;points=[[0,0.5],[1,0.5]];portConstraint=eastwest;whiteSpace=wrap;html=1;" parent="-QA-_m2Z5E1NNeN4uD1D-28" vertex="1">
          <mxGeometry y="52" width="255" height="26" as="geometry" />
        </mxCell>
        <mxCell id="-QA-_m2Z5E1NNeN4uD1D-30" value="" style="line;strokeWidth=1;fillColor=none;align=left;verticalAlign=middle;spacingTop=-1;spacingLeft=3;spacingRight=3;rotatable=0;labelPosition=right;points=[];portConstraint=eastwest;strokeColor=inherit;" parent="-QA-_m2Z5E1NNeN4uD1D-28" vertex="1">
          <mxGeometry y="78" width="255" height="8" as="geometry" />
        </mxCell>
        <mxCell id="-QA-_m2Z5E1NNeN4uD1D-31" value="+ displayLessonContent(Integer id): Lesson" style="text;strokeColor=none;fillColor=none;align=left;verticalAlign=top;spacingLeft=4;spacingRight=4;overflow=hidden;rotatable=0;points=[[0,0.5],[1,0.5]];portConstraint=eastwest;whiteSpace=wrap;html=1;" parent="-QA-_m2Z5E1NNeN4uD1D-28" vertex="1">
          <mxGeometry y="86" width="255" height="40" as="geometry" />
        </mxCell>
        <mxCell id="-QA-_m2Z5E1NNeN4uD1D-33" value="Feedback" style="swimlane;fontStyle=1;align=center;verticalAlign=top;childLayout=stackLayout;horizontal=1;startSize=26;horizontalStack=0;resizeParent=1;resizeParentMax=0;resizeLast=0;collapsible=1;marginBottom=0;whiteSpace=wrap;html=1;" parent="1" vertex="1">
          <mxGeometry x="1000" y="240" width="270" height="126" as="geometry" />
        </mxCell>
        <mxCell id="-QA-_m2Z5E1NNeN4uD1D-34" value="+&amp;nbsp;learner: Learner" style="text;strokeColor=none;fillColor=none;align=left;verticalAlign=top;spacingLeft=4;spacingRight=4;overflow=hidden;rotatable=0;points=[[0,0.5],[1,0.5]];portConstraint=eastwest;whiteSpace=wrap;html=1;" parent="-QA-_m2Z5E1NNeN4uD1D-33" vertex="1">
          <mxGeometry y="26" width="270" height="26" as="geometry" />
        </mxCell>
        <mxCell id="-QA-_m2Z5E1NNeN4uD1D-35" value="+&amp;nbsp;text: String" style="text;strokeColor=none;fillColor=none;align=left;verticalAlign=top;spacingLeft=4;spacingRight=4;overflow=hidden;rotatable=0;points=[[0,0.5],[1,0.5]];portConstraint=eastwest;whiteSpace=wrap;html=1;" parent="-QA-_m2Z5E1NNeN4uD1D-33" vertex="1">
          <mxGeometry y="52" width="270" height="26" as="geometry" />
        </mxCell>
        <mxCell id="-QA-_m2Z5E1NNeN4uD1D-36" value="" style="line;strokeWidth=1;fillColor=none;align=left;verticalAlign=middle;spacingTop=-1;spacingLeft=3;spacingRight=3;rotatable=0;labelPosition=right;points=[];portConstraint=eastwest;strokeColor=inherit;" parent="-QA-_m2Z5E1NNeN4uD1D-33" vertex="1">
          <mxGeometry y="78" width="270" height="8" as="geometry" />
        </mxCell>
        <mxCell id="-QA-_m2Z5E1NNeN4uD1D-37" value="+ leaveFeedback(Learner learner, String text): Feedback" style="text;strokeColor=none;fillColor=none;align=left;verticalAlign=top;spacingLeft=4;spacingRight=4;overflow=hidden;rotatable=0;points=[[0,0.5],[1,0.5]];portConstraint=eastwest;whiteSpace=wrap;html=1;" parent="-QA-_m2Z5E1NNeN4uD1D-33" vertex="1">
          <mxGeometry y="86" width="270" height="40" as="geometry" />
        </mxCell>
        <mxCell id="-QA-_m2Z5E1NNeN4uD1D-38" value="Test" style="swimlane;fontStyle=1;align=center;verticalAlign=top;childLayout=stackLayout;horizontal=1;startSize=26;horizontalStack=0;resizeParent=1;resizeParentMax=0;resizeLast=0;collapsible=1;marginBottom=0;whiteSpace=wrap;html=1;" parent="1" vertex="1">
          <mxGeometry x="750" y="668" width="230" height="110" as="geometry" />
        </mxCell>
        <mxCell id="-QA-_m2Z5E1NNeN4uD1D-39" value="+ questions: List&amp;lt;Questions&amp;gt; [0..*]" style="text;strokeColor=none;fillColor=none;align=left;verticalAlign=top;spacingLeft=4;spacingRight=4;overflow=hidden;rotatable=0;points=[[0,0.5],[1,0.5]];portConstraint=eastwest;whiteSpace=wrap;html=1;" parent="-QA-_m2Z5E1NNeN4uD1D-38" vertex="1">
          <mxGeometry y="26" width="230" height="24" as="geometry" />
        </mxCell>
        <mxCell id="-QA-_m2Z5E1NNeN4uD1D-40" value="" style="line;strokeWidth=1;fillColor=none;align=left;verticalAlign=middle;spacingTop=-1;spacingLeft=3;spacingRight=3;rotatable=0;labelPosition=right;points=[];portConstraint=eastwest;strokeColor=inherit;" parent="-QA-_m2Z5E1NNeN4uD1D-38" vertex="1">
          <mxGeometry y="50" width="230" height="8" as="geometry" />
        </mxCell>
        <mxCell id="-QA-_m2Z5E1NNeN4uD1D-41" value="+ showTestContent(Integer id): Test" style="text;strokeColor=none;fillColor=none;align=left;verticalAlign=top;spacingLeft=4;spacingRight=4;overflow=hidden;rotatable=0;points=[[0,0.5],[1,0.5]];portConstraint=eastwest;whiteSpace=wrap;html=1;" parent="-QA-_m2Z5E1NNeN4uD1D-38" vertex="1">
          <mxGeometry y="58" width="230" height="26" as="geometry" />
        </mxCell>
        <mxCell id="-QA-_m2Z5E1NNeN4uD1D-42" value="+ show test results(Test test): Result" style="text;strokeColor=none;fillColor=none;align=left;verticalAlign=top;spacingLeft=4;spacingRight=4;overflow=hidden;rotatable=0;points=[[0,0.5],[1,0.5]];portConstraint=eastwest;whiteSpace=wrap;html=1;" parent="-QA-_m2Z5E1NNeN4uD1D-38" vertex="1">
          <mxGeometry y="84" width="230" height="26" as="geometry" />
        </mxCell>
        <mxCell id="-QA-_m2Z5E1NNeN4uD1D-43" value="Statistics" style="swimlane;fontStyle=1;align=center;verticalAlign=top;childLayout=stackLayout;horizontal=1;startSize=26;horizontalStack=0;resizeParent=1;resizeParentMax=0;resizeLast=0;collapsible=1;marginBottom=0;whiteSpace=wrap;html=1;" parent="1" vertex="1">
          <mxGeometry x="1100" y="465" width="270" height="130" as="geometry" />
        </mxCell>
        <mxCell id="-QA-_m2Z5E1NNeN4uD1D-44" value="+ learner: Learner" style="text;strokeColor=none;fillColor=none;align=left;verticalAlign=top;spacingLeft=4;spacingRight=4;overflow=hidden;rotatable=0;points=[[0,0.5],[1,0.5]];portConstraint=eastwest;whiteSpace=wrap;html=1;" parent="-QA-_m2Z5E1NNeN4uD1D-43" vertex="1">
          <mxGeometry y="26" width="270" height="26" as="geometry" />
        </mxCell>
        <mxCell id="-QA-_m2Z5E1NNeN4uD1D-51" value="+ course: Course" style="text;strokeColor=none;fillColor=none;align=left;verticalAlign=top;spacingLeft=4;spacingRight=4;overflow=hidden;rotatable=0;points=[[0,0.5],[1,0.5]];portConstraint=eastwest;whiteSpace=wrap;html=1;" parent="-QA-_m2Z5E1NNeN4uD1D-43" vertex="1">
          <mxGeometry y="52" width="270" height="26" as="geometry" />
        </mxCell>
        <mxCell id="-QA-_m2Z5E1NNeN4uD1D-45" value="" style="line;strokeWidth=1;fillColor=none;align=left;verticalAlign=middle;spacingTop=-1;spacingLeft=3;spacingRight=3;rotatable=0;labelPosition=right;points=[];portConstraint=eastwest;strokeColor=inherit;" parent="-QA-_m2Z5E1NNeN4uD1D-43" vertex="1">
          <mxGeometry y="78" width="270" height="8" as="geometry" />
        </mxCell>
        <mxCell id="-QA-_m2Z5E1NNeN4uD1D-46" value="+ displayCourseStatistic(Learner learner, Course course): Statistic" style="text;strokeColor=none;fillColor=none;align=left;verticalAlign=top;spacingLeft=4;spacingRight=4;overflow=hidden;rotatable=0;points=[[0,0.5],[1,0.5]];portConstraint=eastwest;whiteSpace=wrap;html=1;" parent="-QA-_m2Z5E1NNeN4uD1D-43" vertex="1">
          <mxGeometry y="86" width="270" height="44" as="geometry" />
        </mxCell>
        <mxCell id="-QA-_m2Z5E1NNeN4uD1D-52" value="Certificate" style="swimlane;fontStyle=1;align=center;verticalAlign=top;childLayout=stackLayout;horizontal=1;startSize=26;horizontalStack=0;resizeParent=1;resizeParentMax=0;resizeLast=0;collapsible=1;marginBottom=0;whiteSpace=wrap;html=1;" parent="1" vertex="1">
          <mxGeometry x="1100" y="668" width="270" height="160" as="geometry" />
        </mxCell>
        <mxCell id="-QA-_m2Z5E1NNeN4uD1D-53" value="+ Learner: learner" style="text;strokeColor=none;fillColor=none;align=left;verticalAlign=top;spacingLeft=4;spacingRight=4;overflow=hidden;rotatable=0;points=[[0,0.5],[1,0.5]];portConstraint=eastwest;whiteSpace=wrap;html=1;" parent="-QA-_m2Z5E1NNeN4uD1D-52" vertex="1">
          <mxGeometry y="26" width="270" height="26" as="geometry" />
        </mxCell>
        <mxCell id="-QA-_m2Z5E1NNeN4uD1D-56" value="+ Course: course" style="text;strokeColor=none;fillColor=none;align=left;verticalAlign=top;spacingLeft=4;spacingRight=4;overflow=hidden;rotatable=0;points=[[0,0.5],[1,0.5]];portConstraint=eastwest;whiteSpace=wrap;html=1;" parent="-QA-_m2Z5E1NNeN4uD1D-52" vertex="1">
          <mxGeometry y="52" width="270" height="26" as="geometry" />
        </mxCell>
        <mxCell id="-QA-_m2Z5E1NNeN4uD1D-54" value="" style="line;strokeWidth=1;fillColor=none;align=left;verticalAlign=middle;spacingTop=-1;spacingLeft=3;spacingRight=3;rotatable=0;labelPosition=right;points=[];portConstraint=eastwest;strokeColor=inherit;" parent="-QA-_m2Z5E1NNeN4uD1D-52" vertex="1">
          <mxGeometry y="78" width="270" height="8" as="geometry" />
        </mxCell>
        <mxCell id="-QA-_m2Z5E1NNeN4uD1D-55" value="+ getCertificate(Learner learner, Course course): Certificate" style="text;strokeColor=none;fillColor=none;align=left;verticalAlign=top;spacingLeft=4;spacingRight=4;overflow=hidden;rotatable=0;points=[[0,0.5],[1,0.5]];portConstraint=eastwest;whiteSpace=wrap;html=1;" parent="-QA-_m2Z5E1NNeN4uD1D-52" vertex="1">
          <mxGeometry y="86" width="270" height="34" as="geometry" />
        </mxCell>
        <mxCell id="-QA-_m2Z5E1NNeN4uD1D-57" value="+ downloadDigitalCertificate(Learner learner, Course course): Certificate" style="text;strokeColor=none;fillColor=none;align=left;verticalAlign=top;spacingLeft=4;spacingRight=4;overflow=hidden;rotatable=0;points=[[0,0.5],[1,0.5]];portConstraint=eastwest;whiteSpace=wrap;html=1;" parent="-QA-_m2Z5E1NNeN4uD1D-52" vertex="1">
          <mxGeometry y="120" width="270" height="40" as="geometry" />
        </mxCell>
        <mxCell id="-QA-_m2Z5E1NNeN4uD1D-59" value="" style="endArrow=none;html=1;edgeStyle=orthogonalEdgeStyle;rounded=0;" parent="1" edge="1">
          <mxGeometry relative="1" as="geometry">
            <mxPoint x="320" y="320" as="sourcePoint" />
            <mxPoint x="750" y="460" as="targetPoint" />
            <Array as="points">
              <mxPoint x="320" y="360" />
              <mxPoint x="750" y="360" />
              <mxPoint x="750" y="460" />
            </Array>
          </mxGeometry>
        </mxCell>
        <mxCell id="-QA-_m2Z5E1NNeN4uD1D-61" value="&lt;font style=&quot;font-size: 17px;&quot;&gt;0..*&lt;/font&gt;" style="edgeLabel;resizable=0;html=1;align=right;verticalAlign=bottom;fontStyle=1" parent="-QA-_m2Z5E1NNeN4uD1D-59" connectable="0" vertex="1">
          <mxGeometry x="1" relative="1" as="geometry">
            <mxPoint y="1" as="offset" />
          </mxGeometry>
        </mxCell>
        <mxCell id="-QA-_m2Z5E1NNeN4uD1D-62" value="&lt;font style=&quot;font-size: 17px;&quot;&gt;0..*&lt;/font&gt;" style="edgeLabel;resizable=0;html=1;align=right;verticalAlign=bottom;fontStyle=1" parent="1" connectable="0" vertex="1">
          <mxGeometry x="309.9999319598289" y="339.995700678645" as="geometry" />
        </mxCell>
        <mxCell id="-QA-_m2Z5E1NNeN4uD1D-65" value="" style="endArrow=none;html=1;edgeStyle=orthogonalEdgeStyle;rounded=0;" parent="1" edge="1">
          <mxGeometry relative="1" as="geometry">
            <mxPoint x="820" y="320" as="sourcePoint" />
            <mxPoint x="820" y="460" as="targetPoint" />
            <Array as="points">
              <mxPoint x="820" y="320" />
            </Array>
          </mxGeometry>
        </mxCell>
        <mxCell id="-QA-_m2Z5E1NNeN4uD1D-66" value="&lt;font style=&quot;font-size: 17px;&quot;&gt;0..*&lt;/font&gt;" style="edgeLabel;resizable=0;html=1;align=right;verticalAlign=bottom;fontStyle=1" parent="-QA-_m2Z5E1NNeN4uD1D-65" connectable="0" vertex="1">
          <mxGeometry x="1" relative="1" as="geometry">
            <mxPoint y="1" as="offset" />
          </mxGeometry>
        </mxCell>
        <mxCell id="-QA-_m2Z5E1NNeN4uD1D-74" value="" style="endArrow=none;html=1;edgeStyle=orthogonalEdgeStyle;rounded=0;exitX=0.5;exitY=0;exitDx=0;exitDy=0;" parent="1" source="-QA-_m2Z5E1NNeN4uD1D-18" edge="1">
          <mxGeometry relative="1" as="geometry">
            <mxPoint x="900" y="420" as="sourcePoint" />
            <mxPoint x="1140" y="370" as="targetPoint" />
          </mxGeometry>
        </mxCell>
        <mxCell id="-QA-_m2Z5E1NNeN4uD1D-77" value="&lt;font style=&quot;font-size: 17px;&quot;&gt;0..1&lt;/font&gt;" style="edgeLabel;resizable=0;html=1;align=right;verticalAlign=bottom;fontStyle=1" parent="1" connectable="0" vertex="1">
          <mxGeometry x="1119.999931959829" y="839.995700678645" as="geometry">
            <mxPoint x="-22" y="-89" as="offset" />
          </mxGeometry>
        </mxCell>
        <mxCell id="-QA-_m2Z5E1NNeN4uD1D-78" value="&lt;font style=&quot;font-size: 17px;&quot;&gt;0..*&lt;/font&gt;" style="edgeLabel;resizable=0;html=1;align=right;verticalAlign=bottom;fontStyle=1" parent="1" connectable="0" vertex="1">
          <mxGeometry x="1170" y="390" as="geometry" />
        </mxCell>
        <mxCell id="sJjAoyrnurzyOcNZZube-1" value="" style="endArrow=none;html=1;edgeStyle=orthogonalEdgeStyle;rounded=0;exitX=1;exitY=0.5;exitDx=0;exitDy=0;entryX=0;entryY=1.077;entryDx=0;entryDy=0;entryPerimeter=0;" parent="1" source="-QA-_m2Z5E1NNeN4uD1D-22" target="-QA-_m2Z5E1NNeN4uD1D-56" edge="1">
          <mxGeometry relative="1" as="geometry">
            <mxPoint x="980" y="730" as="sourcePoint" />
            <mxPoint x="1090" y="730" as="targetPoint" />
            <Array as="points">
              <mxPoint x="980" y="560" />
              <mxPoint x="1040" y="560" />
              <mxPoint x="1040" y="748" />
            </Array>
          </mxGeometry>
        </mxCell>
        <mxCell id="sJjAoyrnurzyOcNZZube-5" value="&lt;font style=&quot;font-size: 17px;&quot;&gt;1&lt;/font&gt;" style="edgeLabel;resizable=0;html=1;align=right;verticalAlign=bottom;fontStyle=1" parent="1" connectable="0" vertex="1">
          <mxGeometry x="1000" y="590" as="geometry" />
        </mxCell>
        <mxCell id="sJjAoyrnurzyOcNZZube-6" value="" style="endArrow=none;html=1;edgeStyle=orthogonalEdgeStyle;rounded=0;" parent="1" edge="1">
          <mxGeometry relative="1" as="geometry">
            <mxPoint x="980" y="520" as="sourcePoint" />
            <mxPoint x="1100" y="520" as="targetPoint" />
          </mxGeometry>
        </mxCell>
        <mxCell id="sJjAoyrnurzyOcNZZube-9" value="&lt;font style=&quot;font-size: 17px;&quot;&gt;1&lt;/font&gt;" style="edgeLabel;resizable=0;html=1;align=right;verticalAlign=bottom;fontStyle=1" parent="1" connectable="0" vertex="1">
          <mxGeometry x="990" y="510" as="geometry">
            <mxPoint x="6" y="10" as="offset" />
          </mxGeometry>
        </mxCell>
        <mxCell id="sJjAoyrnurzyOcNZZube-10" value="&lt;font style=&quot;font-size: 17px;&quot;&gt;1&lt;/font&gt;" style="edgeLabel;resizable=0;html=1;align=right;verticalAlign=bottom;fontStyle=1" parent="1" connectable="0" vertex="1">
          <mxGeometry x="1090" y="510" as="geometry">
            <mxPoint x="6" y="9" as="offset" />
          </mxGeometry>
        </mxCell>
        <mxCell id="sJjAoyrnurzyOcNZZube-11" value="&lt;font style=&quot;font-size: 17px;&quot;&gt;1&lt;/font&gt;" style="edgeLabel;resizable=0;html=1;align=right;verticalAlign=bottom;fontStyle=1" parent="1" connectable="0" vertex="1">
          <mxGeometry x="870" y="461" as="geometry" />
        </mxCell>
        <mxCell id="sJjAoyrnurzyOcNZZube-12" value="&lt;font style=&quot;font-size: 17px;&quot;&gt;1&lt;/font&gt;" style="edgeLabel;resizable=0;html=1;align=right;verticalAlign=bottom;fontStyle=1" parent="1" connectable="0" vertex="1">
          <mxGeometry x="810" y="350" as="geometry" />
        </mxCell>
        <mxCell id="sJjAoyrnurzyOcNZZube-13" value="" style="endArrow=diamondThin;endFill=1;endSize=24;html=1;rounded=0;" parent="1" edge="1">
          <mxGeometry width="160" relative="1" as="geometry">
            <mxPoint x="750" y="723" as="sourcePoint" />
            <mxPoint x="637.5" y="722.58" as="targetPoint" />
          </mxGeometry>
        </mxCell>
        <mxCell id="sJjAoyrnurzyOcNZZube-15" value="" style="endArrow=diamondThin;endFill=1;endSize=24;html=1;rounded=0;" parent="1" edge="1">
          <mxGeometry width="160" relative="1" as="geometry">
            <mxPoint x="510" y="660" as="sourcePoint" />
            <mxPoint x="509.58" y="580" as="targetPoint" />
          </mxGeometry>
        </mxCell>
      </root>
    </mxGraphModel>
  </diagram>
</mxfile>
